<?xml version="1.0" standalone="no"?>
<!DOCTYPE svg PUBLIC "-//W3C//DTD SVG 20010904//EN"
 "http://www.w3.org/TR/2001/REC-SVG-20010904/DTD/svg10.dtd">
<svg version="1.0" xmlns="http://www.w3.org/2000/svg"
 width="500.000000pt" height="500.000000pt" viewBox="0 0 500.000000 500.000000"
 preserveAspectRatio="xMidYMid meet">
<metadata>
Created by potrace 1.14, written by Peter Selinger 2001-2017
</metadata>
<g transform="translate(0.000000,500.000000) scale(0.100000,-0.100000)"
fill="#000000" stroke="none">
<path d="M2227 4987 c-24 -7 -39 -31 -88 -131 -74 -148 -95 -163 -159 -103
-76 71 -171 147 -184 147 -47 0 -79 -29 -90 -81 -3 -13 -16 -66 -30 -117 -15
-51 -26 -95 -26 -97 0 -2 -13 -8 -29 -13 -25 -9 -37 -5 -87 25 -140 84 -182
103 -213 92 -40 -14 -49 -41 -56 -169 -9 -147 -8 -140 -37 -157 -23 -15 -33
-13 -152 27 -111 37 -131 40 -155 30 -31 -12 -50 -44 -45 -75 35 -242 35 -244
13 -266 -18 -18 -29 -20 -83 -15 -33 4 -70 9 -81 11 -11 3 -45 7 -76 10 -47 4
-61 2 -83 -16 -35 -28 -34 -50 16 -191 l41 -119 -20 -26 c-14 -20 -29 -27 -59
-29 -84 -4 -210 -15 -227 -20 -9 -3 -24 -19 -32 -35 -14 -25 -14 -33 -1 -61
17 -36 59 -112 99 -175 22 -35 25 -46 16 -71 -9 -26 -19 -32 -92 -51 -183 -50
-187 -51 -200 -79 -7 -15 -12 -33 -11 -39 1 -7 2 -18 3 -23 0 -6 40 -53 87
-105 75 -83 85 -99 82 -127 -3 -31 -9 -36 -118 -90 -121 -61 -151 -86 -145
-119 9 -45 20 -57 118 -130 87 -65 102 -80 105 -107 3 -26 -3 -35 -35 -59
-102 -75 -176 -138 -183 -157 -4 -12 -3 -34 3 -49 7 -23 32 -39 131 -89 66
-33 122 -61 123 -62 2 -2 5 -16 8 -32 4 -23 -1 -37 -31 -69 -20 -22 -50 -56
-67 -75 -16 -19 -39 -45 -49 -56 -28 -31 -32 -76 -11 -103 16 -20 89 -44 255
-84 17 -5 30 -17 36 -36 9 -25 6 -37 -25 -87 -84 -140 -103 -182 -92 -212 14
-42 40 -51 164 -58 61 -3 119 -7 130 -7 10 -1 26 -13 34 -27 13 -24 10 -37
-28 -155 -36 -109 -40 -132 -31 -155 11 -26 42 -47 65 -45 6 1 37 5 70 9 33 4
75 10 94 12 19 2 46 6 61 9 18 3 34 -2 49 -16 21 -20 22 -27 16 -86 -3 -35 -8
-74 -11 -86 -2 -12 -6 -46 -9 -75 -4 -47 -1 -57 20 -78 13 -13 35 -24 47 -24
13 0 75 18 138 41 111 39 116 40 145 25 23 -13 30 -24 31 -49 2 -82 14 -225
20 -241 3 -9 19 -23 35 -31 35 -19 46 -15 178 64 91 54 104 59 130 50 27 -9
31 -19 60 -127 38 -139 46 -156 77 -171 36 -16 67 0 163 88 47 43 93 80 101
83 36 13 59 -12 115 -124 63 -126 71 -136 105 -143 36 -7 62 15 145 125 103
136 106 136 217 -7 126 -162 153 -159 243 24 31 65 58 119 59 120 1 2 16 5 32
9 22 4 35 0 54 -18 96 -90 184 -158 205 -158 53 0 64 21 125 252 10 37 18 49
40 56 23 9 37 4 96 -30 156 -91 172 -98 204 -86 48 16 49 22 64 266 3 40 24
71 51 72 5 0 64 -18 132 -40 131 -43 161 -44 186 -6 14 20 15 56 3 131 -3 16
-8 53 -12 80 -3 28 -8 57 -9 66 -2 10 7 27 20 39 l23 22 127 -16 c130 -17 161
-15 182 13 20 27 15 63 -28 184 -39 112 -40 117 -24 141 10 14 20 26 24 27 22
3 78 8 161 13 169 11 180 38 82 208 -97 169 -98 167 131 224 77 19 105 38 111
74 5 35 -6 52 -100 157 -110 124 -110 127 50 208 80 41 122 69 131 86 27 50
12 70 -118 167 -91 68 -98 76 -95 104 3 26 19 43 103 108 165 127 164 147 -17
240 -111 56 -127 68 -132 94 -5 25 2 38 51 95 32 36 70 79 86 96 35 38 44 72
26 104 -15 27 -48 40 -206 82 -71 18 -83 24 -91 48 -8 22 -2 39 40 111 84 143
91 164 73 199 -19 37 -25 39 -160 46 -140 8 -149 10 -164 39 -12 21 -10 35 15
107 15 46 29 86 29 89 0 3 7 22 14 43 21 61 -16 120 -70 112 -8 -2 -40 -6 -70
-9 -30 -4 -65 -8 -79 -11 -91 -15 -97 -14 -119 6 -20 19 -21 27 -16 87 4 37 8
74 10 82 2 8 7 40 10 70 5 47 3 60 -15 83 -31 40 -51 38 -210 -21 -8 -3 -17
-6 -20 -7 -3 0 -22 -7 -43 -14 -33 -11 -41 -11 -62 3 -14 9 -25 22 -26 29 0 6
-2 31 -4 54 -2 24 -6 77 -9 119 -3 44 -12 86 -21 100 -14 22 -25 27 -65 27
-13 0 -69 -29 -145 -76 -89 -55 -93 -57 -123 -46 -26 9 -31 19 -61 127 -43
153 -46 161 -76 172 -38 15 -69 -2 -166 -91 -78 -71 -92 -80 -121 -77 -31 3
-36 9 -88 115 -61 124 -73 140 -111 147 -38 6 -59 -12 -145 -125 -102 -134
-104 -134 -216 8 -45 58 -92 109 -103 113 -11 4 -33 3 -48 -3z m-244 -1028
c-21 -9 -74 -32 -118 -51 -359 -154 -666 -476 -811 -853 -19 -51 -23 -55 -24
-30 0 34 -1 862 0 915 l0 35 495 0 c469 0 494 -1 458 -16z m1988 11 c5 -20 3
-1057 -2 -1052 -3 4 -16 39 -28 77 -44 139 -152 341 -250 465 -52 66 -197 209
-266 261 -124 95 -279 181 -412 229 -35 13 -63 23 -63 24 0 4 1020 0 1021 -4z
m-1420 -41 c463 -10 926 -291 1167 -707 70 -120 136 -290 161 -412 6 -30 13
-68 17 -85 3 -16 8 -102 10 -190 2 -126 -2 -183 -17 -270 -87 -480 -409 -882
-857 -1070 -89 -37 -238 -80 -312 -90 -25 -3 -58 -9 -75 -11 -36 -7 -291 -7
-320 -1 -11 3 -40 8 -65 12 -65 11 -69 11 -140 30 -450 115 -831 476 -983 927
-221 657 75 1383 694 1707 122 64 274 117 389 137 14 2 35 7 48 9 12 3 57 8
100 11 42 3 79 8 81 10 2 2 7 2 11 -1 3 -2 44 -5 91 -6z m1424 -2354 c0 -300
-2 -546 -5 -546 -8 -2 -1080 -4 -1080 -2 0 1 24 9 53 18 28 9 59 19 67 21 8 3
16 5 17 5 2 0 42 18 89 40 395 181 692 510 827 917 17 50 31 92 31 92 1 0 1
-245 1 -545z m-2816 170 c133 -231 335 -433 565 -565 89 -51 228 -112 293
-129 23 -7 44 -15 47 -19 2 -4 -229 -7 -515 -7 l-519 0 0 60 c-1 81 -1 816 0
885 l0 55 39 -95 c21 -52 62 -135 90 -185z"/>
</g>
</svg>
